<svg width="20" height="20" viewBox="0 0 20 20" fill="none" xmlns="http://www.w3.org/2000/svg">
<path d="M14.9497 13.7124L11.2374 10.0001L14.9497 6.28777C15.2915 5.94606 15.2915 5.39204 14.9497 5.05033C14.608 4.70863 14.054 4.70863 13.7123 5.05033L10 8.76264L6.28769 5.05033C5.94598 4.70863 5.39196 4.70863 5.05025 5.05033C4.70855 5.39204 4.70855 5.94606 5.05025 6.28777L8.76256 10.0001L5.05025 13.7124C4.70855 14.0541 4.70855 14.6081 5.05025 14.9498C5.39196 15.2915 5.94598 15.2915 6.28769 14.9498L10 11.2375L13.7123 14.9498C14.054 15.2915 14.608 15.2915 14.9497 14.9498C15.2915 14.6081 15.2915 14.0541 14.9497 13.7124Z" fill="#FF3838"/>
</svg>
