<svg width="57" height="42" viewBox="0 0 57 42" fill="none" xmlns="http://www.w3.org/2000/svg">
<g clip-path="url(#clip0_92_742)">
<path d="M31.4846 37.2186V13.2234C31.4846 9.75214 32.8551 6.42306 35.2949 3.96852C37.7346 1.51399 41.0435 0.135043 44.4939 0.135043C45.0689 0.135043 45.6204 0.364865 46.027 0.773955C46.4337 1.18304 46.6621 1.73789 46.6621 2.31643C46.6621 2.89497 46.4337 3.44982 46.027 3.8589C45.6204 4.268 45.0689 4.49782 44.4939 4.49782C42.1958 4.50501 39.994 5.42662 38.3691 7.06142C36.7441 8.69625 35.8281 10.9114 35.821 13.2234V15.4048H52.0826C53.2327 15.4048 54.3357 15.8644 55.149 16.6826C55.9622 17.5007 56.4191 18.6104 56.4191 19.7675V37.2186C56.4191 38.3757 55.9622 39.4854 55.149 40.3036C54.3357 41.1218 53.2327 41.5814 52.0826 41.5814H35.821C34.6709 41.5814 33.5679 41.1218 32.7546 40.3036C31.9414 39.4854 31.4846 38.3757 31.4846 37.2186ZM4.38176 41.5814H20.6434C21.7935 41.5814 22.8965 41.1218 23.7098 40.3036C24.523 39.4854 24.9799 38.3757 24.9799 37.2186V19.7675C24.9799 18.6104 24.523 17.5007 23.7098 16.6826C22.8965 15.8644 21.7935 15.4048 20.6434 15.4048H4.38176V13.2234C4.38891 10.9114 5.30495 8.69625 6.92989 7.06141C8.55483 5.42661 10.7566 4.50501 13.0546 4.49781C13.6297 4.49781 14.1812 4.26799 14.5878 3.8589C14.9945 3.44982 15.2229 2.89497 15.2229 2.31643C15.2229 1.73789 14.9945 1.18304 14.5878 0.773952C14.1812 0.364863 13.6297 0.13504 13.0546 0.13504C9.60435 0.135039 6.29539 1.51398 3.85567 3.96852C1.41594 6.42306 0.045321 9.75214 0.0453207 13.2234L0.0453186 37.2186C0.0453185 38.3757 0.502193 39.4854 1.31543 40.3036C2.12867 41.1218 3.23166 41.5814 4.38176 41.5814Z" fill="#F5F5F5"/>
</g>
<defs>
<clipPath id="clip0_92_742">
<rect width="57" height="42" fill="white"/>
</clipPath>
</defs>
</svg>
