<svg width="16" height="16" viewBox="0 0 16 16" fill="none" xmlns="http://www.w3.org/2000/svg">
<g clip-path="url(#clip0_152_10)">
<path d="M16 7.49789C15.9036 5.9379 15.3528 4.44023 14.4155 3.1895C13.4782 1.93878 12.1954 0.989683 10.7252 0.459218C9.25497 -0.0712477 7.66169 -0.15989 6.14173 0.204218C4.62177 0.568326 3.24158 1.36927 2.17132 2.5083C1.10106 3.64733 0.387514 5.07466 0.118648 6.61433C-0.150218 8.15399 0.037351 9.73868 0.658231 11.173C1.27911 12.6074 2.30616 13.8287 3.61276 14.6864C4.91936 15.5441 6.44839 16.0007 8.01135 15.9999H12.6667C13.5505 15.999 14.3978 15.6475 15.0227 15.0226C15.6477 14.3977 15.9991 13.5503 16 12.6666V7.49789ZM14.6667 12.6666C14.6667 13.197 14.456 13.7057 14.0809 14.0808C13.7058 14.4558 13.1971 14.6666 12.6667 14.6666H8.01135C7.07064 14.6661 6.14058 14.4674 5.28182 14.0834C4.42305 13.6994 3.65487 13.1387 3.02735 12.4379C2.3968 11.7374 1.92331 10.9102 1.63862 10.0117C1.35392 9.11329 1.26462 8.16435 1.37669 7.22855C1.55364 5.75252 2.21681 4.37735 3.26165 3.31984C4.30648 2.26233 5.67356 1.58263 7.14735 1.38789C7.43484 1.35185 7.72428 1.3336 8.01402 1.33322C9.56767 1.32898 11.0732 1.87182 12.2667 2.86655C12.9637 3.44585 13.5358 4.16066 13.9484 4.96764C14.3609 5.77463 14.6053 6.65698 14.6667 7.56122V12.6666Z" fill="#FF3838"/>
<path d="M5.33335 6.00008H8.00002C8.17683 6.00008 8.3464 5.92984 8.47142 5.80482C8.59645 5.67979 8.66669 5.51023 8.66669 5.33341C8.66669 5.1566 8.59645 4.98703 8.47142 4.86201C8.3464 4.73699 8.17683 4.66675 8.00002 4.66675H5.33335C5.15654 4.66675 4.98697 4.73699 4.86195 4.86201C4.73693 4.98703 4.66669 5.1566 4.66669 5.33341C4.66669 5.51023 4.73693 5.67979 4.86195 5.80482C4.98697 5.92984 5.15654 6.00008 5.33335 6.00008Z" fill="#FF3838"/>
<path d="M10.6667 7.33325H5.33335C5.15654 7.33325 4.98697 7.40349 4.86195 7.52851C4.73693 7.65354 4.66669 7.82311 4.66669 7.99992C4.66669 8.17673 4.73693 8.3463 4.86195 8.47132C4.98697 8.59635 5.15654 8.66659 5.33335 8.66659H10.6667C10.8435 8.66659 11.0131 8.59635 11.1381 8.47132C11.2631 8.3463 11.3334 8.17673 11.3334 7.99992C11.3334 7.82311 11.2631 7.65354 11.1381 7.52851C11.0131 7.40349 10.8435 7.33325 10.6667 7.33325Z" fill="#FF3838"/>
<path d="M10.6667 10H5.33335C5.15654 10 4.98697 10.0702 4.86195 10.1953C4.73693 10.3203 4.66669 10.4899 4.66669 10.6667C4.66669 10.8435 4.73693 11.013 4.86195 11.1381C4.98697 11.2631 5.15654 11.3333 5.33335 11.3333H10.6667C10.8435 11.3333 11.0131 11.2631 11.1381 11.1381C11.2631 11.013 11.3334 10.8435 11.3334 10.6667C11.3334 10.4899 11.2631 10.3203 11.1381 10.1953C11.0131 10.0702 10.8435 10 10.6667 10Z" fill="#FF3838"/>
</g>
<defs>
<clipPath id="clip0_152_10">
<rect width="16" height="16" fill="white"/>
</clipPath>
</defs>
</svg>
