<svg width="18" height="18" viewBox="0 0 18 18" fill="none" xmlns="http://www.w3.org/2000/svg">
<path d="M12.375 18C6.93899 18 -8.82179e-06 11.061 -8.82179e-06 5.62503C-0.00520784 5.03989 0.10596 4.45955 0.327031 3.91775C0.548102 3.37595 0.874667 2.8835 1.28774 2.46903L3.66524 0.0915272L8.36324 4.79028L5.80874 7.34478C6.72928 9.53065 8.46612 11.2713 10.65 12.1965L13.2105 9.63603L17.91 14.3348L15.531 16.7138C15.1164 17.1265 14.6239 17.4528 14.0821 17.6736C13.5403 17.8944 12.96 18.0054 12.375 18ZM3.66524 2.21328L2.34749 3.53103C2.07446 3.80645 1.85893 4.13342 1.71343 4.49291C1.56794 4.8524 1.49538 5.23724 1.49999 5.62503C1.49999 10.3005 7.69949 16.5 12.375 16.5C12.7626 16.5045 13.1473 16.432 13.5067 16.2868C13.8662 16.1416 14.1932 15.9265 14.469 15.654L15.7882 14.3348L13.2097 11.757L11.0145 13.95L10.56 13.776C9.11264 13.2374 7.79798 12.3939 6.70507 11.3028C5.61216 10.2117 4.76653 8.89848 4.22549 7.45203L4.04099 6.99228L6.24224 4.79028L3.66524 2.21328ZM12.8902 8.01678L13.92 6.98853L12.75 5.81853V3.75003H11.25V6.37503L12.8902 8.01678ZM8.67374 2.97978C9.08225 2.52819 9.57829 2.16436 10.1317 1.91037C10.6852 1.65638 11.2845 1.51753 11.8932 1.50227C12.502 1.487 13.1075 1.59562 13.6729 1.82155C14.2384 2.04748 14.7521 2.38598 15.1827 2.81652C15.6133 3.24705 15.952 3.76063 16.178 4.32605C16.4041 4.89148 16.5129 5.49695 16.4977 6.1057C16.4826 6.71446 16.3439 7.31378 16.0901 7.86728C15.8362 8.42078 15.4725 8.91691 15.021 9.32553L16.0807 10.386C16.6709 9.83798 17.1446 9.17655 17.4733 8.44129C17.8021 7.70603 17.9792 6.91203 17.9941 6.10675C18.009 5.30148 17.8614 4.50147 17.5601 3.75454C17.2588 3.00762 16.8099 2.32912 16.2404 1.75961C15.6709 1.19009 14.9924 0.741261 14.2455 0.439942C13.4986 0.138623 12.6985 -0.00899636 11.8933 0.00590889C11.088 0.0208142 10.294 0.197938 9.55873 0.526692C8.82346 0.855446 8.16204 1.32908 7.61399 1.91928L8.67374 2.97978Z" fill="#FF3838"/>
</svg>
