<svg width="16" height="16" viewBox="0 0 16 16" fill="none" xmlns="http://www.w3.org/2000/svg">
<g clip-path="url(#clip0_169_6511)">
<path d="M8 16C3.58867 16 0 12.4113 0 8C0 3.58867 3.58867 0 8 0C12.4113 0 16 3.58867 16 8C16 12.4113 12.4113 16 8 16ZM8 1.33333C4.324 1.33333 1.33333 4.324 1.33333 8C1.33333 11.676 4.324 14.6667 8 14.6667C11.676 14.6667 14.6667 11.676 14.6667 8C14.6667 4.324 11.676 1.33333 8 1.33333ZM9.83133 9.314L9.11867 9.88133C7.738 9.354 6.71933 8.37733 6.11867 6.88133L6.686 6.16867C6.98333 5.87133 6.98333 5.38867 6.686 5.09133L6.01933 4.22333C5.722 3.926 5.23933 3.926 4.942 4.22333L4.542 4.57133C4.174 4.93867 4 5.42267 4 5.90467C4 8.57133 7.61933 12 10.0953 12C10.5773 12 11.0613 11.826 11.4287 11.458L11.7767 11.058C12.074 10.7607 12.074 10.278 11.7767 9.98067L10.9087 9.314C10.6113 9.01667 10.1287 9.01667 9.83133 9.314Z" fill="#FF3838"/>
</g>
<defs>
<clipPath id="clip0_169_6511">
<rect width="16" height="16" fill="white"/>
</clipPath>
</defs>
</svg>
