<svg width="57" height="46" viewBox="0 0 57 46" fill="none" xmlns="http://www.w3.org/2000/svg">
<path d="M56.9594 8.96859C55.4362 11.1577 52.9828 12.9866 50.1964 14.4994C46.7682 6.00307 38.348 0 28.502 0C18.6561 0 10.2358 6.00708 6.80357 14.4994C4.01714 12.9866 1.56378 11.1577 0.0405786 8.96859C0.0405786 8.96859 -1.75476 16.7486 18.5383 23.6201C18.3636 37.6513 26.9179 41.4892 26.9179 41.4892C19.7934 27.9663 31.8693 22.1153 25.3663 20.5065L22.9292 20.0583C20.1305 19.462 15.1263 18.2293 10.3699 16.2123C13.1523 9.00861 20.2158 3.88999 28.502 3.88999C36.7882 3.88999 43.8518 9.00861 46.6342 16.2123C41.8737 18.2293 36.8735 19.462 34.0749 20.0583L31.6378 20.5065C25.1388 22.1153 37.2107 27.9663 30.0861 41.4892C30.0861 41.4892 38.6404 37.6513 38.4658 23.6201C58.7547 16.7446 56.9594 8.96859 56.9594 8.96859Z" fill="#FF3838"/>
<path d="M54.4167 16.3647C51.5815 20.4428 45.5131 23.2883 40.0499 25.1292C40.0337 26.7741 39.8956 28.2748 39.6681 29.6395C55.9765 23.1482 54.4167 16.3647 54.4167 16.3647ZM17.3319 29.6395C17.1045 28.2748 16.9664 26.7741 16.9501 25.1292C11.4869 23.2843 5.42257 20.4428 2.58333 16.3647C2.58739 16.3647 1.02358 23.1482 17.3319 29.6395ZM51.8252 23.8246C51.8252 23.8046 51.8252 23.7885 51.8293 23.7725C51.8171 23.8086 51.8009 23.8446 51.7887 23.8766C49.2094 27.4864 44.1036 30.1198 39.1726 31.9407C38.608 34.0218 37.82 35.7227 36.971 37.0994C40.3221 35.7747 42.9216 34.438 44.9445 33.1493C41.5122 38.5361 35.4356 42.1179 28.5061 42.1179C21.5766 42.1179 15.5 38.5361 12.0718 33.1533C14.0946 34.442 16.6942 35.7787 20.0453 37.0994C19.1923 35.7227 18.4083 34.0218 17.8437 31.9407C12.8558 30.0998 7.69315 27.4304 5.1423 23.7605C5.1423 23.7605 4.9717 24.5089 5.33727 25.7456C6.71424 37.1554 16.5602 45.9999 28.5102 45.9999C40.4602 45.9999 50.302 37.1554 51.6831 25.7495C52.0527 24.5089 51.878 23.7605 51.878 23.7605C51.8537 23.7845 51.8415 23.8046 51.8252 23.8246Z" fill="#032B66"/>
<path d="M19.0907 13.9273L18.6723 12.6587L18.2539 13.9273H16.8973L17.994 14.7117L17.5756 15.9804L18.6723 15.196L19.769 15.9804L19.3506 14.7117L20.4473 13.9273H19.0907Z" fill="#032B66"/>
<path d="M28.6239 14.5146L30.9472 16.1794L30.0618 13.4861L32.3811 11.8252H29.5093L28.6239 9.13184L27.7343 11.8252H24.8666L27.19 13.4861L26.3005 16.1794L28.6239 14.5146Z" fill="#032B66"/>
<path d="M38.9938 13.9273L38.5754 12.6587L38.157 13.9273H36.8044L37.8971 14.7117L37.4787 15.9804L38.5754 15.196L39.6721 15.9804L39.2537 14.7117L40.3504 13.9273H38.9938Z" fill="#032B66"/>
</svg>
