<?xml version="1.0" encoding="UTF-8" ?>
<!DOCTYPE svg PUBLIC "-//W3C//DTD SVG 1.1//EN" "http://www.w3.org/Graphics/SVG/1.1/DTD/svg11.dtd">
<svg viewBox="0 0 1000 1000" version="1.1" xmlns="http://www.w3.org/2000/svg">
<g id="#4a49d4ff">
<path fill="#4a49d4" opacity="1.00" d=" M 71.07 497.03 C 110.61 457.87 149.78 418.33 189.21 379.07 C 228.57 418.38 267.81 457.79 307.24 497.02 C 267.87 536.33 228.57 575.70 189.22 615.02 C 149.77 575.75 110.57 536.24 71.07 497.03 M 77.93 497.03 C 115.13 533.95 152.11 571.09 189.15 608.18 C 226.27 571.16 263.28 534.04 300.37 497.00 C 263.26 460.07 226.23 423.05 189.31 385.93 C 152.05 422.83 115.25 460.19 77.93 497.03 Z" />
</g>
<g id="#4f5de9ff">
<path fill="#4f5de9" opacity="1.00" d=" M 136.34 445.31 C 145.05 436.58 153.88 427.97 162.45 419.10 C 162.48 435.72 162.44 452.34 162.45 468.97 C 153.77 468.89 145.09 468.96 136.41 468.97 C 136.33 461.08 136.29 453.20 136.34 445.31 Z" />
<path fill="#4f5de9" opacity="1.00" d=" M 215.68 418.81 C 224.39 427.67 233.26 436.37 242.00 445.19 C 241.99 453.16 242.01 461.12 241.98 469.09 C 233.28 468.93 224.58 468.77 215.89 469.19 C 215.51 452.41 215.81 435.60 215.68 418.81 Z" />
</g>
<g id="#28246aff">
<path fill="#28246a" opacity="1.00" d=" M 320.60 461.00 C 321.91 461.00 323.21 461.01 324.53 461.04 C 325.25 462.07 326.01 463.09 326.82 464.07 C 344.57 463.89 362.34 464.11 380.09 463.99 C 381.93 464.22 382.71 462.34 383.48 461.07 C 384.78 461.04 386.08 461.03 387.39 461.02 C 387.39 465.05 387.40 469.08 387.40 473.11 C 365.12 471.15 342.86 469.09 320.60 466.92 C 320.60 464.94 320.60 462.97 320.60 461.00 Z" />
</g>
<g id="#1b1847ff">
<path fill="#1b1847" opacity="1.00" d=" M 538.04 463.96 C 539.68 464.04 540.22 462.14 541.05 461.07 C 542.35 461.04 543.66 461.01 544.98 461.00 C 544.98 465.67 545.00 470.34 545.00 475.01 C 524.27 473.76 503.62 471.33 482.93 469.60 C 481.91 468.71 480.85 467.89 479.77 467.11 C 479.76 466.33 479.74 464.78 479.73 464.00 C 499.17 463.96 518.61 464.10 538.04 463.96 Z" />
</g>
<g id="#17153dff">
<path fill="#17153d" opacity="1.00" d=" M 562.54 475.34 C 568.28 468.29 577.06 464.34 585.98 463.43 C 595.64 462.38 605.91 462.85 614.76 467.25 C 620.56 470.24 625.34 475.02 628.56 480.68 C 621.13 481.10 613.81 478.95 606.39 479.66 C 599.98 475.34 591.59 474.18 584.52 477.62 C 577.29 476.19 569.86 476.11 562.54 475.34 Z" />
</g>
<g id="#0b0a1cff">
<path fill="#0b0a1c" opacity="1.00" d=" M 732.50 475.42 C 738.03 468.54 746.50 464.56 755.16 463.54 C 764.09 462.41 773.47 462.70 781.96 465.98 C 789.43 468.91 795.58 474.80 799.19 481.93 C 791.95 481.89 784.80 480.37 777.56 480.58 C 772.34 476.73 765.42 474.29 758.97 476.16 C 756.80 476.69 754.74 477.59 752.73 478.55 C 751.25 477.77 749.64 477.24 747.97 477.17 C 742.79 476.75 737.62 476.24 732.50 475.42 Z" />
</g>
<g id="#23205dff">
<path fill="#23205d" opacity="1.00" d=" M 393.74 464.01 C 401.37 464.01 409.00 463.98 416.63 464.04 C 416.60 465.17 416.58 466.31 416.56 467.46 C 416.03 467.70 414.96 468.17 414.43 468.40 C 414.22 468.79 413.78 469.55 413.57 469.94 C 407.91 470.01 402.21 469.87 396.65 468.77 C 395.62 468.36 394.67 467.79 393.70 467.29 C 393.71 466.47 393.73 464.83 393.74 464.01 Z" />
</g>
<g id="#1e1c51ff">
<path fill="#1e1c51" opacity="1.00" d=" M 445.06 464.03 C 452.70 463.98 460.35 464.02 468.00 464.01 C 468.00 464.80 467.98 466.37 467.97 467.16 C 466.80 467.96 465.65 468.82 464.84 470.01 C 459.33 470.94 453.87 469.13 448.34 469.48 C 447.34 468.73 446.32 468.02 445.29 467.35 C 445.20 466.23 445.12 465.13 445.06 464.03 Z" />
<path fill="#1e1c51" opacity="1.00" d=" M 902.96 502.65 C 921.03 504.86 939.20 506.12 957.31 507.92 C 958.99 511.28 960.68 514.64 962.36 518.01 C 955.72 517.10 949.02 516.83 942.37 516.10 C 941.83 515.19 941.32 514.29 940.80 513.40 C 932.09 513.56 923.37 513.42 914.66 513.48 C 913.76 515.19 912.87 516.90 911.99 518.61 L 911.87 518.58 C 907.02 517.34 902.05 516.61 897.05 516.57 L 896.74 516.06 C 898.19 511.36 900.93 507.14 902.96 502.65 Z" />
</g>
<g id="#100f2bff">
<path fill="#100f2b" opacity="1.00" d=" M 642.74 464.01 C 656.50 463.99 670.26 464.03 684.03 463.99 C 690.88 464.34 698.17 465.00 703.96 469.05 C 708.25 471.75 711.26 475.98 713.52 480.43 C 706.16 480.21 698.84 478.46 691.48 479.28 C 682.52 474.69 672.19 477.13 662.59 476.41 C 657.05 475.46 651.40 475.50 645.89 474.39 C 646.14 471.51 646.07 468.11 642.75 467.16 C 642.75 466.37 642.74 464.80 642.74 464.01 Z" />
</g>
<g id="#05050cff">
<path fill="#05050c" opacity="1.00" d=" M 812.73 464.01 C 827.50 463.98 842.27 464.04 857.03 463.98 C 863.64 464.12 870.88 464.44 876.31 468.69 C 880.11 471.60 881.79 476.34 882.50 480.91 C 876.50 480.51 870.54 479.31 864.51 479.54 C 862.31 477.80 859.66 476.58 856.82 476.51 C 848.75 476.29 840.67 476.66 832.60 476.39 C 827.03 475.78 821.46 475.31 815.89 474.76 C 816.07 471.80 816.25 468.15 812.75 467.15 C 812.75 466.37 812.74 464.79 812.73 464.01 Z" />
</g>
<g id="#010101ff">
<path fill="#010101" opacity="1.00" d=" M 915.60 464.00 C 924.15 464.00 932.71 463.99 941.27 464.01 C 941.26 464.80 941.25 466.37 941.24 467.16 C 940.34 468.07 938.41 468.42 938.49 469.95 C 939.43 472.34 940.67 474.60 941.71 476.97 C 933.29 476.21 924.87 475.42 916.45 474.75 C 917.19 473.15 917.96 471.53 918.38 469.81 C 918.08 468.43 916.53 468.01 915.62 467.16 C 915.62 466.37 915.60 464.79 915.60 464.00 Z" />
</g>
<g id="#2f2a7dff">
<path fill="#2f2a7d" opacity="1.00" d=" M 320.60 466.92 C 342.86 469.09 365.12 471.15 387.40 473.11 C 387.39 475.23 387.39 477.35 387.40 479.48 C 386.09 479.46 384.77 479.45 383.46 479.44 C 382.67 478.41 382.22 476.54 380.63 476.54 C 374.56 476.33 368.48 476.54 362.41 476.47 C 362.40 477.96 362.40 479.45 362.40 480.96 C 356.81 480.40 351.23 479.58 345.60 479.65 C 345.59 478.58 345.58 477.52 345.58 476.47 C 339.52 476.56 333.45 476.33 327.40 476.55 C 325.74 476.54 325.37 478.43 324.60 479.50 C 323.26 479.49 321.92 479.48 320.58 479.47 C 320.59 475.29 320.60 471.10 320.60 466.92 Z" />
</g>
<g id="#5151e2ff">
<path fill="#5151e2" opacity="1.00" d=" M 136.41 468.97 C 145.09 468.96 153.77 468.89 162.45 468.97 C 162.46 479.63 162.45 490.30 162.45 500.97 C 154.39 500.84 146.33 501.07 138.26 500.91 C 137.58 499.94 136.91 498.98 136.20 498.05 C 135.04 497.09 133.35 497.63 131.97 497.45 C 116.01 497.55 100.05 497.45 84.10 497.52 C 92.93 488.81 101.72 480.04 110.41 471.18 C 119.05 470.99 127.70 471.14 136.34 471.10 C 136.36 470.57 136.39 469.50 136.41 468.97 Z" />
<path fill="#5151e2" opacity="1.00" d=" M 215.89 469.19 C 224.58 468.77 233.28 468.93 241.98 469.09 C 242.02 469.56 242.11 470.51 242.15 470.98 C 250.67 470.89 259.20 470.86 267.72 470.88 C 276.57 479.77 285.44 488.63 294.32 497.49 C 263.83 497.61 233.33 497.31 202.84 497.62 C 202.74 498.20 202.54 499.36 202.44 499.94 C 195.30 500.30 188.14 500.24 180.99 500.17 C 178.93 500.34 177.42 498.86 175.77 497.91 C 173.14 496.69 169.76 498.44 167.32 496.86 C 166.73 492.28 167.24 487.63 167.08 483.03 C 167.25 479.13 166.66 475.17 167.34 471.32 C 182.85 470.60 198.54 471.39 214.11 470.98 C 215.08 470.88 215.67 470.29 215.89 469.19 Z" />
</g>
<g id="#29256dff">
<path fill="#29256d" opacity="1.00" d=" M 396.65 468.77 C 402.21 469.87 407.91 470.01 413.57 469.94 C 413.59 472.02 413.60 474.10 413.60 476.19 C 408.02 475.92 402.48 475.14 396.91 474.80 C 396.85 472.79 396.76 470.78 396.65 468.77 Z" />
</g>
<g id="#29256eff">
<path fill="#29256e" opacity="1.00" d=" M 448.34 469.48 C 453.87 469.13 459.33 470.94 464.84 470.01 C 465.12 475.57 464.97 481.15 464.99 486.72 C 459.85 486.49 454.74 485.89 449.64 485.30 C 449.17 486.86 448.71 488.44 448.25 490.01 C 448.25 483.17 448.23 476.32 448.34 469.48 Z" />
</g>
<g id="#211e58ff">
<path fill="#211e58" opacity="1.00" d=" M 482.93 469.60 C 503.62 471.33 524.27 473.76 545.00 475.01 C 544.99 476.49 544.99 477.98 545.00 479.48 C 543.69 479.46 542.39 479.44 541.09 479.43 C 540.29 478.25 539.61 476.40 537.89 476.50 C 525.13 476.38 512.35 476.56 499.58 476.43 C 494.00 476.00 488.47 474.96 482.86 474.85 C 482.86 473.09 482.88 471.34 482.93 469.60 Z" />
</g>
<g id="#1d1a4dff">
<path fill="#1d1a4d" opacity="1.00" d=" M 645.89 474.39 C 651.40 475.50 657.05 475.46 662.59 476.41 C 662.59 481.58 662.61 486.76 662.60 491.93 C 657.02 491.53 651.48 490.45 645.87 490.68 C 645.87 485.25 645.84 479.82 645.89 474.39 Z" />
</g>
<g id="#2e2a7cff">
<path fill="#2e2a7c" opacity="1.00" d=" M 396.91 474.80 C 402.48 475.14 408.02 475.92 413.60 476.19 C 413.60 478.23 413.59 480.27 413.59 482.32 C 408.04 481.32 402.30 482.05 396.85 480.47 C 396.85 478.58 396.87 476.69 396.91 474.80 Z" />
</g>
<g id="#272367ff">
<path fill="#272367" opacity="1.00" d=" M 482.86 474.85 C 488.47 474.96 494.00 476.00 499.58 476.43 C 499.59 478.44 499.59 480.46 499.59 482.48 C 494.02 481.73 488.33 481.86 482.86 480.47 C 482.86 478.59 482.86 476.72 482.86 474.85 Z" />
</g>
<g id="#0c0b20ff">
<path fill="#0c0b20" opacity="1.00" d=" M 815.89 474.76 C 821.46 475.31 827.03 475.78 832.60 476.39 C 832.59 479.01 832.59 481.64 832.60 484.27 C 827.02 483.58 821.34 483.74 815.86 482.40 C 815.85 479.85 815.85 477.30 815.89 474.76 Z" />
</g>
<g id="#080816ff">
<path fill="#080816" opacity="1.00" d=" M 907.85 492.34 C 910.77 486.51 913.44 480.55 916.45 474.75 C 924.87 475.42 933.29 476.21 941.71 476.97 L 941.88 476.98 C 943.88 481.43 946.49 485.61 948.24 490.16 L 947.98 490.70 C 941.89 490.64 935.79 490.22 929.79 489.14 C 929.17 487.85 928.55 486.56 927.94 485.29 C 926.50 488.21 925.10 491.15 923.72 494.10 C 918.42 493.56 913.13 492.95 907.85 492.34 Z" />
</g>
<g id="#201d56ff">
<path fill="#201d56" opacity="1.00" d=" M 558.99 480.84 C 560.09 478.95 561.28 477.12 562.54 475.34 C 569.86 476.11 577.29 476.19 584.52 477.62 C 581.89 479.04 579.52 480.91 577.47 483.08 C 571.38 481.78 565.11 481.91 558.99 480.84 Z" />
</g>
<g id="#16143aff">
<path fill="#16143a" opacity="1.00" d=" M 725.78 490.03 C 726.89 484.72 729.22 479.72 732.50 475.42 C 737.62 476.24 742.79 476.75 747.97 477.17 C 749.64 477.24 751.25 477.77 752.73 478.55 C 747.74 481.85 743.91 486.93 742.78 492.88 C 737.64 489.77 731.44 491.01 725.78 490.03 Z" />
<path fill="#16143a" opacity="1.00" d=" M 815.86 482.40 C 821.34 483.74 827.02 483.58 832.60 484.27 C 832.59 486.83 832.58 489.39 832.57 491.95 C 840.02 492.04 847.48 492.00 854.93 492.02 C 858.08 492.10 861.24 491.38 863.88 489.61 C 869.68 490.98 875.67 490.95 881.54 491.91 C 880.03 495.72 877.33 498.96 873.67 500.88 C 871.18 500.07 868.64 499.39 866.02 499.24 C 849.29 498.07 832.64 495.57 815.87 495.05 C 815.86 490.83 815.88 486.61 815.86 482.40 Z" />
</g>
<g id="#221f5bff">
<path fill="#221f5b" opacity="1.00" d=" M 606.39 479.66 C 613.81 478.95 621.13 481.10 628.56 480.68 C 630.27 484.25 631.39 488.05 632.02 491.96 C 626.12 491.87 620.29 490.61 614.38 491.03 C 612.92 486.54 610.22 482.46 606.39 479.66 Z" />
</g>
<g id="#1a1845ff">
<path fill="#1a1845" opacity="1.00" d=" M 691.48 479.28 C 698.84 478.46 706.16 480.21 713.52 480.43 C 715.01 484.05 715.91 487.88 716.46 491.76 C 710.54 491.46 704.62 490.97 698.76 490.13 C 697.66 485.79 695.10 481.91 691.48 479.28 Z" />
</g>
<g id="#0d0c23ff">
<path fill="#0d0c23" opacity="1.00" d=" M 864.51 479.54 C 870.54 479.31 876.50 480.51 882.50 480.91 C 882.57 484.60 882.49 488.31 881.54 491.91 C 875.67 490.95 869.68 490.98 863.88 489.61 C 866.13 486.68 866.22 482.76 864.51 479.54 Z" />
</g>
<g id="#383396ff">
<path fill="#383396" opacity="1.00" d=" M 345.60 479.65 C 351.23 479.58 356.81 480.40 362.40 480.96 C 362.39 483.00 362.40 485.04 362.40 487.08 C 356.77 487.06 351.19 486.29 345.60 485.80 C 345.60 483.75 345.60 481.69 345.60 479.65 Z" />
<path fill="#383396" opacity="1.00" d=" M 816.01 524.12 C 821.55 523.65 827.08 524.35 832.57 525.07 C 833.55 525.82 834.53 526.55 835.55 527.30 C 835.58 528.10 835.62 529.69 835.64 530.49 C 828.00 530.45 820.36 530.49 812.73 530.47 C 812.73 529.68 812.74 528.08 812.74 527.29 C 814.20 526.63 815.50 525.71 816.01 524.12 Z" />
</g>
<g id="#3a359bff">
<path fill="#3a359b" opacity="1.00" d=" M 396.85 480.47 C 402.30 482.05 408.04 481.32 413.59 482.32 C 413.57 484.88 413.58 487.45 413.63 490.02 C 425.17 489.99 436.71 490.03 448.25 490.01 C 448.71 488.44 449.17 486.86 449.64 485.30 C 454.74 485.89 459.85 486.49 464.99 486.72 C 464.95 491.73 465.01 496.73 465.01 501.75 C 459.42 500.60 453.70 500.62 448.05 499.96 C 430.97 498.59 413.96 496.51 396.87 495.28 C 396.85 490.34 396.90 485.41 396.85 480.47 Z" />
<path fill="#3a359b" opacity="1.00" d=" M 482.87 495.13 C 495.26 496.30 507.64 497.51 520.04 498.58 C 523.07 498.92 526.30 498.51 529.15 499.79 C 530.07 501.56 530.34 503.56 530.84 505.49 C 529.85 505.48 527.87 505.45 526.88 505.44 C 526.01 504.42 525.54 502.51 523.93 502.52 C 515.82 502.33 507.70 502.62 499.59 502.41 C 494.00 502.05 488.43 501.39 482.87 500.78 C 482.86 498.89 482.86 497.01 482.87 495.13 Z" />
</g>
<g id="#332e88ff">
<path fill="#332e88" opacity="1.00" d=" M 482.86 480.47 C 488.33 481.86 494.02 481.73 499.59 482.48 C 499.55 485.00 499.57 487.52 499.66 490.05 C 507.78 489.88 515.91 490.18 524.02 489.92 C 525.63 489.99 526.06 488.06 526.93 487.06 C 528.18 487.04 529.45 487.03 530.72 487.03 C 530.75 493.18 530.66 499.34 530.84 505.49 C 530.34 503.56 530.07 501.56 529.15 499.79 C 526.30 498.51 523.07 498.92 520.04 498.58 C 507.64 497.51 495.26 496.30 482.87 495.13 C 482.86 490.24 482.89 485.36 482.86 480.47 Z" />
</g>
<g id="#151337ff">
<path fill="#151337" opacity="1.00" d=" M 777.56 480.58 C 784.80 480.37 791.95 481.89 799.19 481.93 C 800.78 485.71 801.74 489.72 802.22 493.79 C 796.38 492.86 790.45 492.83 784.60 491.98 C 783.44 487.59 781.06 483.52 777.56 480.58 Z" />
</g>
<g id="#262366ff">
<path fill="#262366" opacity="1.00" d=" M 558.99 480.84 C 565.11 481.91 571.38 481.78 577.47 483.08 C 575.97 485.00 574.70 487.10 573.74 489.35 C 568.08 487.87 562.18 488.17 556.47 487.06 C 557.22 484.95 558.08 482.88 558.99 480.84 Z" />
</g>
<g id="#3e38a5ff">
<path fill="#3e38a5" opacity="1.00" d=" M 345.60 485.80 C 351.19 486.29 356.77 487.06 362.40 487.08 C 362.39 489.10 362.40 491.12 362.40 493.15 C 356.77 493.09 351.18 492.44 345.60 491.83 C 345.60 489.82 345.60 487.81 345.60 485.80 Z" />
</g>
<g id="#2c2877ff">
<path fill="#2c2877" opacity="1.00" d=" M 556.47 487.06 C 562.18 488.17 568.08 487.87 573.74 489.35 C 573.20 491.22 572.75 493.12 572.43 495.05 C 566.75 494.39 561.03 494.13 555.37 493.36 C 555.68 491.25 556.07 489.15 556.47 487.06 Z" />
</g>
<g id="#141234ff">
<path fill="#141234" opacity="1.00" d=" M 929.79 489.14 C 935.79 490.22 941.89 490.64 947.98 490.70 L 948.71 490.91 C 951.74 496.48 954.43 502.26 957.31 507.92 C 939.20 506.12 921.03 504.86 902.96 502.65 C 904.51 499.18 906.27 495.81 907.85 492.34 C 913.13 492.95 918.42 493.56 923.72 494.10 C 922.34 497.05 920.97 500.00 919.64 502.98 C 925.12 503.01 930.60 503.00 936.08 502.99 C 934.00 498.37 931.90 493.75 929.79 489.14 Z" />
</g>
<g id="#272368ff">
<path fill="#272368" opacity="1.00" d=" M 698.76 490.13 C 704.62 490.97 710.54 491.46 716.46 491.76 C 716.68 496.79 716.68 501.85 715.88 506.83 L 715.62 506.82 C 709.88 506.66 704.21 505.72 698.50 505.30 C 699.77 500.35 699.91 495.11 698.76 490.13 Z" />
</g>
<g id="#221f5cff">
<path fill="#221f5c" opacity="1.00" d=" M 725.78 490.03 C 731.44 491.01 737.64 489.77 742.78 492.88 C 742.20 496.22 742.27 499.67 743.08 502.97 C 737.20 502.10 731.27 501.74 725.36 501.30 C 725.15 497.53 725.31 493.76 725.78 490.03 Z" />
</g>
<g id="#2a2671ff">
<path fill="#2a2671" opacity="1.00" d=" M 614.38 491.03 C 620.29 490.61 626.12 491.87 632.02 491.96 C 632.15 494.13 632.25 496.30 632.34 498.48 C 627.06 497.91 621.78 497.13 616.45 497.38 C 615.99 498.30 615.55 499.23 615.14 500.18 C 615.20 497.11 614.99 494.03 614.38 491.03 Z" />
</g>
<g id="#2a2670ff">
<path fill="#2a2670" opacity="1.00" d=" M 645.87 490.68 C 651.48 490.45 657.02 491.53 662.60 491.93 C 662.58 495.62 662.60 499.32 662.60 503.01 C 657.04 502.43 651.47 501.64 645.87 501.76 C 645.86 498.06 645.86 494.37 645.87 490.68 Z" />
</g>
<g id="#433db4ff">
<path fill="#433db4" opacity="1.00" d=" M 345.60 491.83 C 351.18 492.44 356.77 493.09 362.40 493.15 C 362.39 495.50 362.40 497.85 362.40 500.21 C 356.84 499.34 351.23 498.70 345.60 498.86 C 345.60 496.51 345.60 494.17 345.60 491.83 Z" />
</g>
<g id="#1f1c52ff">
<path fill="#1f1c52" opacity="1.00" d=" M 784.60 491.98 C 790.45 492.83 796.38 492.86 802.22 493.79 C 802.35 497.42 802.26 501.06 801.76 504.66 L 801.64 504.64 C 795.94 503.91 790.15 503.89 784.53 502.63 C 785.33 499.13 785.26 495.50 784.60 491.98 Z" />
</g>
<g id="#332e87ff">
<path fill="#332e87" opacity="1.00" d=" M 555.33 500.57 C 555.27 498.16 555.29 495.76 555.37 493.36 C 561.03 494.13 566.75 494.39 572.43 495.05 C 572.36 496.96 572.41 498.89 572.59 500.81 C 566.80 501.37 561.07 499.18 555.33 500.57 Z" />
</g>
<g id="#413bb0ff">
<path fill="#413bb0" opacity="1.00" d=" M 396.87 495.28 C 413.96 496.51 430.97 498.59 448.05 499.96 C 453.70 500.62 459.42 500.60 465.01 501.75 C 465.00 503.74 465.00 505.73 465.00 507.74 C 459.44 507.01 453.81 506.93 448.27 506.01 C 448.26 504.82 448.25 503.64 448.26 502.47 C 436.69 502.49 425.12 502.40 413.56 502.53 C 407.97 502.62 402.40 502.06 396.87 501.34 C 396.86 499.32 396.86 497.30 396.87 495.28 Z" />
</g>
<g id="#1e1b50ff">
<path fill="#1e1b50" opacity="1.00" d=" M 815.87 495.05 C 832.64 495.57 849.29 498.07 866.02 499.24 C 868.64 499.39 871.18 500.07 873.67 500.88 C 871.16 501.98 868.54 502.78 865.88 503.40 C 868.37 506.82 870.82 510.27 873.25 513.75 C 866.56 513.10 859.83 511.67 853.10 512.58 C 851.15 509.93 849.30 507.21 847.47 504.48 C 842.61 504.53 837.75 504.34 832.91 504.54 C 832.79 504.87 832.56 505.54 832.45 505.88 C 826.91 505.42 821.38 504.93 815.87 504.26 C 815.86 501.19 815.86 498.11 815.87 495.05 Z" />
</g>
<g id="#5440daff">
<path fill="#5440da" opacity="1.00" d=" M 175.77 497.91 C 177.42 498.86 178.93 500.34 180.99 500.17 C 188.14 500.24 195.30 500.30 202.44 499.94 C 202.57 518.29 202.56 536.64 202.58 555.00 C 194.18 554.69 185.77 555.10 177.37 554.80 C 177.20 551.68 176.72 548.59 175.96 545.56 C 175.56 529.69 176.11 513.79 175.77 497.91 Z" />
</g>
<g id="#35308dff">
<path fill="#35308d" opacity="1.00" d=" M 616.45 497.38 C 621.78 497.13 627.06 497.91 632.34 498.48 C 632.17 503.57 630.98 508.59 628.79 513.20 L 628.60 513.18 C 622.36 512.69 616.18 511.57 609.92 511.51 C 612.64 508.25 614.13 504.24 615.14 500.18 C 615.55 499.23 615.99 498.30 616.45 497.38 Z" />
</g>
<g id="#5347ddff">
<path fill="#5347dd" opacity="1.00" d=" M 136.20 498.05 C 136.91 498.98 137.58 499.94 138.26 500.91 C 146.33 501.07 154.39 500.84 162.45 500.97 C 162.46 507.97 162.45 514.98 162.45 521.99 C 154.12 521.73 145.77 522.36 137.45 521.77 C 137.07 520.77 136.71 519.77 136.36 518.77 C 136.11 511.87 136.52 504.95 136.20 498.05 Z" />
<path fill="#5347dd" opacity="1.00" d=" M 215.87 501.92 C 224.53 501.79 233.21 501.72 241.88 501.96 C 242.14 508.65 241.93 515.35 242.00 522.04 C 233.23 521.94 224.47 521.99 215.71 521.96 C 215.79 515.28 215.52 508.59 215.87 501.92 Z" />
</g>
<g id="#4942c3ff">
<path fill="#4942c3" opacity="1.00" d=" M 345.60 498.86 C 351.23 498.70 356.84 499.34 362.40 500.21 C 362.40 502.57 362.40 504.93 362.39 507.30 C 356.80 506.80 351.22 506.09 345.60 505.96 C 345.59 503.59 345.60 501.22 345.60 498.86 Z" />
<path fill="#4942c3" opacity="1.00" d=" M 482.87 507.01 C 488.37 508.17 493.99 508.40 499.59 508.71 C 499.59 511.78 499.59 514.86 499.57 517.94 C 512.73 518.05 525.89 518.00 539.05 517.98 C 540.76 518.14 541.41 516.21 542.17 515.06 C 543.48 515.03 544.80 515.02 546.13 515.02 C 546.13 518.08 546.13 521.14 546.13 524.21 C 525.05 522.21 503.94 520.46 482.87 518.36 C 482.86 514.57 482.87 510.79 482.87 507.01 Z" />
</g>
<g id="#393398ff">
<path fill="#393398" opacity="1.00" d=" M 555.33 500.57 C 561.07 499.18 566.80 501.37 572.59 500.81 C 573.13 503.24 573.91 505.63 575.02 507.87 C 569.01 507.08 562.96 506.55 556.90 506.44 L 556.18 506.42 C 555.87 504.47 555.58 502.52 555.33 500.57 Z" />
</g>
<g id="#4841c0ff">
<path fill="#4841c0" opacity="1.00" d=" M 396.87 501.34 C 402.40 502.06 407.97 502.62 413.56 502.53 C 413.60 505.25 413.61 507.97 413.60 510.70 C 408.02 510.10 402.39 509.96 396.87 508.90 C 396.86 506.38 396.86 503.86 396.87 501.34 Z" />
<path fill="#4841c0" opacity="1.00" d=" M 448.27 506.01 C 453.81 506.93 459.44 507.01 465.00 507.74 C 464.99 510.22 465.00 512.70 465.00 515.19 C 459.42 514.71 453.87 513.97 448.27 513.80 C 448.26 511.20 448.27 508.60 448.27 506.01 Z" />
</g>
<g id="#403aabff">
<path fill="#403aab" opacity="1.00" d=" M 482.87 500.78 C 488.43 501.39 494.00 502.05 499.59 502.41 C 499.59 504.51 499.59 506.61 499.59 508.71 C 493.99 508.40 488.37 508.17 482.87 507.01 C 482.86 504.93 482.86 502.85 482.87 500.78 Z" />
</g>
<g id="#2b2772ff">
<path fill="#2b2772" opacity="1.00" d=" M 725.36 501.30 C 731.27 501.74 737.20 502.10 743.08 502.97 C 743.69 504.94 744.50 506.85 745.47 508.68 C 739.08 508.38 732.69 508.01 726.38 506.98 C 726.02 505.08 725.67 503.19 725.36 501.30 Z" />
</g>
<g id="#322e87ff">
<path fill="#322e87" opacity="1.00" d=" M 645.87 501.76 C 651.47 501.64 657.04 502.43 662.60 503.01 C 662.59 505.15 662.59 507.28 662.59 509.43 C 656.97 509.65 651.45 508.49 645.87 508.22 C 645.86 506.06 645.86 503.91 645.87 501.76 Z" />
</g>
<g id="#2a266fff">
<path fill="#2a266f" opacity="1.00" d=" M 777.76 513.71 C 781.00 510.73 783.31 506.85 784.53 502.63 C 790.15 503.89 795.94 503.91 801.64 504.64 C 800.90 508.58 799.29 512.27 797.30 515.73 C 790.86 514.42 784.28 514.30 777.76 513.71 Z" />
</g>
<g id="#262265ff">
<path fill="#262265" opacity="1.00" d=" M 815.87 504.26 C 821.38 504.93 826.91 505.42 832.45 505.88 C 832.59 507.97 832.61 510.08 832.61 512.18 C 827.00 512.12 821.42 511.53 815.87 510.80 C 815.86 508.61 815.86 506.44 815.87 504.26 Z" />
<path fill="#262265" opacity="1.00" d=" M 942.37 516.10 C 949.02 516.83 955.72 517.10 962.36 518.01 C 963.34 519.94 964.32 521.88 965.22 523.87 C 959.01 524.86 952.58 521.57 946.62 524.01 C 944.96 521.50 943.72 518.76 942.37 516.10 Z" />
</g>
<g id="#5048d6ff">
<path fill="#5048d6" opacity="1.00" d=" M 345.60 505.96 C 351.22 506.09 356.80 506.80 362.39 507.30 C 362.38 511.59 362.43 515.89 362.38 520.18 C 356.79 519.66 351.22 518.83 345.61 518.75 C 345.58 514.48 345.61 510.22 345.60 505.96 Z" />
</g>
<g id="#3e39a8ff">
<path fill="#3e39a8" opacity="1.00" d=" M 556.90 506.44 C 562.96 506.55 569.01 507.08 575.02 507.87 C 576.64 510.60 578.83 512.95 581.26 514.99 C 573.87 514.59 566.48 512.98 559.08 513.61 L 558.98 513.62 C 557.91 511.28 557.01 508.86 556.20 506.42 L 556.90 506.44 Z" />
</g>
<g id="#312d84ff">
<path fill="#312d84" opacity="1.00" d=" M 695.87 511.10 C 696.91 509.25 697.80 507.31 698.50 505.30 C 704.21 505.72 709.88 506.66 715.62 506.82 C 715.33 509.18 714.56 511.44 713.76 513.67 L 713.66 513.64 C 707.95 511.55 701.78 512.13 695.87 511.10 Z" />
</g>
<g id="#302c82ff">
<path fill="#302c82" opacity="1.00" d=" M 726.38 506.98 C 732.69 508.01 739.08 508.38 745.47 508.68 C 747.06 511.02 749.02 513.11 751.22 514.91 C 743.91 515.57 736.68 513.26 729.39 514.35 C 728.21 511.97 727.21 509.50 726.38 506.98 Z" />
</g>
<g id="#3f39a9ff">
<path fill="#3f39a9" opacity="1.00" d=" M 645.87 508.22 C 651.45 508.49 656.97 509.65 662.59 509.43 C 662.57 512.28 662.58 515.13 662.59 517.99 C 671.26 517.66 680.18 519.05 688.65 516.61 C 695.70 518.68 703.14 518.24 710.34 519.46 C 706.70 523.76 702.04 527.58 696.42 528.77 C 690.17 527.26 683.75 526.94 677.38 526.41 C 666.89 525.67 656.44 523.63 645.91 524.01 C 645.81 518.75 645.89 513.48 645.87 508.22 Z" />
</g>
<g id="#4e46d1ff">
<path fill="#4e46d1" opacity="1.00" d=" M 396.87 508.90 C 402.39 509.96 408.02 510.10 413.60 510.70 C 413.59 513.75 413.61 516.80 413.58 519.85 C 408.03 519.08 402.41 518.92 396.87 518.08 C 396.86 515.02 396.87 511.96 396.87 508.90 Z" />
</g>
<g id="#373295ff">
<path fill="#373295" opacity="1.00" d=" M 695.87 511.10 C 701.78 512.13 707.95 511.55 713.66 513.64 C 712.69 515.65 711.58 517.60 710.34 519.46 C 703.14 518.24 695.70 518.68 688.65 516.61 C 691.44 515.36 693.89 513.44 695.87 511.10 Z" />
</g>
<g id="#2c2876ff">
<path fill="#2c2876" opacity="1.00" d=" M 815.87 510.80 C 821.42 511.53 827.00 512.12 832.61 512.18 C 832.59 514.17 832.58 516.17 832.59 518.17 C 826.98 518.17 821.41 517.53 815.86 516.79 C 815.86 514.79 815.86 512.79 815.87 510.80 Z" />
<path fill="#2c2876" opacity="1.00" d=" M 853.10 512.58 C 859.83 511.67 866.56 513.10 873.25 513.75 C 875.82 517.51 878.53 521.18 881.36 524.76 C 874.41 524.80 867.56 523.28 860.60 523.54 C 858.11 519.88 855.58 516.25 853.10 512.58 Z" />
<path fill="#2c2876" opacity="1.00" d=" M 946.62 524.01 C 952.58 521.57 959.01 524.86 965.22 523.87 C 966.47 525.36 968.07 526.50 969.87 527.30 C 969.87 528.10 969.88 529.70 969.89 530.50 C 961.09 530.44 952.29 530.47 943.49 530.49 C 943.51 529.69 943.56 528.09 943.58 527.28 C 945.09 526.66 946.43 525.77 946.62 524.01 Z" />
</g>
<g id="#3f39a8ff">
<path fill="#3f39a8" opacity="1.00" d=" M 603.65 516.55 C 605.96 515.16 608.09 513.48 609.92 511.51 C 616.18 511.57 622.36 512.69 628.60 513.18 C 627.49 515.50 626.06 517.63 624.46 519.64 C 617.67 517.63 610.45 518.50 603.65 516.55 Z" />
</g>
<g id="#453eb8ff">
<path fill="#453eb8" opacity="1.00" d=" M 559.08 513.61 C 566.48 512.98 573.87 514.59 581.26 514.99 C 587.84 519.42 596.55 520.29 603.65 516.55 C 610.45 518.50 617.67 517.63 624.46 519.64 C 622.40 521.93 620.11 524.02 617.57 525.77 C 614.77 525.01 611.93 524.34 609.04 524.15 C 600.02 523.60 591.06 522.44 582.06 521.68 C 576.10 521.22 570.14 520.13 564.15 520.73 L 564.01 520.74 C 562.11 518.54 560.42 516.18 559.08 513.61 Z" />
</g>
<g id="#4d46cfff">
<path fill="#4d46cf" opacity="1.00" d=" M 448.27 513.80 C 453.87 513.97 459.42 514.71 465.00 515.19 C 465.00 517.75 465.03 520.31 464.92 522.88 C 459.42 521.85 453.80 522.03 448.31 520.99 C 448.25 518.59 448.26 516.19 448.27 513.80 Z" />
</g>
<g id="#363191ff">
<path fill="#363191" opacity="1.00" d=" M 729.39 514.35 C 736.68 513.26 743.91 515.57 751.22 514.91 C 759.09 520.59 770.47 520.16 777.76 513.71 C 784.28 514.30 790.86 514.42 797.30 515.73 C 794.68 519.55 791.61 523.25 787.61 525.64 C 772.70 523.74 757.68 523.05 742.76 521.25 C 740.20 520.84 737.63 521.21 735.15 521.83 C 732.89 519.61 731.01 517.05 729.39 514.35 Z" />
</g>
<g id="#322d86ff">
<path fill="#322d86" opacity="1.00" d=" M 815.86 516.79 C 821.41 517.53 826.98 518.17 832.59 518.17 C 832.60 520.46 832.60 522.76 832.57 525.07 C 827.08 524.35 821.55 523.65 816.01 524.12 C 815.83 521.68 815.84 519.23 815.86 516.79 Z" />
</g>
<g id="#2a2771ff">
<path fill="#2a2771" opacity="1.00" d=" M 896.26 516.80 L 897.05 516.57 C 902.05 516.61 907.02 517.34 911.87 518.58 C 910.96 520.50 910.04 522.42 909.09 524.32 C 903.81 523.51 898.49 522.84 893.14 522.87 C 894.17 520.85 894.86 518.61 896.26 516.80 Z" />
</g>
<g id="#544ce1ff">
<path fill="#544ce1" opacity="1.00" d=" M 396.87 518.08 C 402.41 518.92 408.03 519.08 413.58 519.85 C 413.36 522.77 413.19 526.23 416.61 527.29 C 416.61 528.35 416.61 529.42 416.61 530.50 C 408.99 530.43 401.36 530.49 393.73 530.47 C 393.73 529.67 393.74 528.08 393.74 527.29 C 398.03 526.19 396.71 521.36 396.87 518.08 Z" />
</g>
<g id="#4f47d3ff">
<path fill="#4f47d3" opacity="1.00" d=" M 482.87 518.36 C 503.94 520.46 525.05 522.21 546.13 524.21 C 546.13 527.30 546.13 530.39 546.13 533.48 C 544.80 533.47 543.49 533.45 542.17 533.44 C 541.42 532.17 540.61 530.34 538.84 530.47 C 519.13 530.46 499.43 530.48 479.72 530.47 C 479.73 529.68 479.73 528.08 479.74 527.28 C 483.95 526.23 482.77 521.58 482.87 518.36 Z" />
</g>
<g id="#543ed9ff">
<path fill="#543ed9" opacity="1.00" d=" M 136.36 518.77 C 136.71 519.77 137.07 520.77 137.45 521.77 C 145.77 522.36 154.12 521.73 162.45 521.99 C 162.46 529.97 162.50 537.95 162.49 545.94 C 154.20 546.15 145.89 545.62 137.61 546.23 C 137.31 546.94 136.70 548.35 136.40 549.06 C 136.09 538.97 136.14 528.86 136.36 518.77 Z" />
</g>
<g id="#564ee7ff">
<path fill="#564ee7" opacity="1.00" d=" M 345.61 518.75 C 351.22 518.83 356.79 519.66 362.38 520.18 C 362.18 522.93 362.07 526.45 365.44 527.23 C 365.46 528.04 365.48 529.67 365.50 530.48 C 357.86 530.44 350.22 530.47 342.59 530.47 C 342.60 529.65 342.61 528.02 342.62 527.21 C 346.64 526.24 345.51 521.79 345.61 518.75 Z" />
</g>
<g id="#4a43c6ff">
<path fill="#4a43c6" opacity="1.00" d=" M 564.15 520.73 C 570.14 520.13 576.10 521.22 582.06 521.68 C 591.06 522.44 600.02 523.60 609.04 524.15 C 611.93 524.34 614.77 525.01 617.57 525.77 C 608.57 531.47 597.51 532.04 587.18 531.30 C 578.63 530.46 570.01 527.21 564.15 520.73 Z" />
</g>
<g id="#524bddff">
<path fill="#524bdd" opacity="1.00" d=" M 448.31 520.99 C 453.80 522.03 459.42 521.85 464.92 522.88 C 464.59 525.08 466.18 526.44 467.98 527.27 C 467.98 528.07 468.00 529.67 468.01 530.47 C 460.38 530.49 452.75 530.42 445.12 530.51 C 445.12 529.74 445.11 528.19 445.11 527.42 C 447.91 526.38 448.78 523.77 448.31 520.99 Z" />
</g>
<g id="#3d37a3ff">
<path fill="#3d37a3" opacity="1.00" d=" M 735.15 521.83 C 737.63 521.21 740.20 520.84 742.76 521.25 C 757.68 523.05 772.70 523.74 787.61 525.64 C 778.70 531.57 767.51 531.99 757.18 531.30 C 749.09 530.52 741.04 527.55 735.15 521.83 Z" />
</g>
<g id="#543fd9ff">
<path fill="#543fd9" opacity="1.00" d=" M 215.71 521.96 C 224.47 521.99 233.23 521.94 242.00 522.04 C 242.00 528.38 242.00 534.71 242.00 541.05 C 233.21 540.99 224.43 540.99 215.65 540.97 C 215.63 534.63 215.74 528.29 215.71 521.96 Z" />
</g>
<g id="#342f8bff">
<path fill="#342f8b" opacity="1.00" d=" M 860.60 523.54 C 867.56 523.28 874.41 524.80 881.36 524.76 C 882.73 525.97 884.37 526.75 886.12 527.30 C 886.13 528.09 886.13 529.67 886.13 530.46 C 877.42 530.48 868.71 530.48 860.00 530.47 C 860.00 529.67 860.00 528.07 860.00 527.27 C 860.56 526.97 861.69 526.35 862.26 526.05 C 861.69 525.21 861.14 524.37 860.60 523.54 Z" />
</g>
<g id="#312c83ff">
<path fill="#312c83" opacity="1.00" d=" M 893.14 522.87 C 898.49 522.84 903.81 523.51 909.09 524.32 C 909.25 524.74 909.58 525.56 909.74 525.97 C 910.38 526.27 911.65 526.87 912.28 527.17 C 912.28 528.00 912.27 529.64 912.27 530.46 C 904.30 530.49 896.33 530.45 888.37 530.50 C 888.38 529.68 888.40 528.05 888.41 527.24 C 890.63 526.57 892.18 524.93 893.14 522.87 Z" />
</g>
<g id="#463fbbff">
<path fill="#463fbb" opacity="1.00" d=" M 645.91 524.01 C 656.44 523.63 666.89 525.67 677.38 526.41 C 683.75 526.94 690.17 527.26 696.42 528.77 C 691.42 530.24 686.16 530.57 680.98 530.48 C 668.23 530.45 655.48 530.48 642.74 530.47 C 642.73 529.65 642.72 528.00 642.71 527.17 C 643.34 526.88 644.59 526.29 645.21 526.00 C 645.39 525.50 645.74 524.51 645.91 524.01 Z" />
</g>
<g id="#5538d6ff">
<path fill="#5538d6" opacity="1.00" d=" M 215.65 540.97 C 224.43 540.99 233.21 540.99 242.00 541.05 C 242.00 543.72 242.00 546.40 242.01 549.09 C 233.30 557.92 224.45 566.60 215.74 575.42 C 215.60 563.94 215.67 552.45 215.65 540.97 Z" />
</g>
<g id="#5537d5ff">
<path fill="#5537d5" opacity="1.00" d=" M 137.61 546.23 C 145.89 545.62 154.20 546.15 162.49 545.94 C 162.46 555.64 162.54 565.34 162.43 575.04 C 153.88 566.26 145.20 557.58 136.40 549.06 C 136.70 548.35 137.31 546.94 137.61 546.23 Z" />
</g>
<g id="#5630d1ff">
<path fill="#5630d1" opacity="1.00" d=" M 175.96 545.56 C 176.72 548.59 177.20 551.68 177.37 554.80 C 185.77 555.10 194.18 554.69 202.58 555.00 C 202.57 565.66 202.62 576.33 202.54 586.99 C 202.83 588.80 201.22 589.88 200.16 591.05 C 196.50 594.58 192.89 598.18 189.33 601.82 C 184.99 597.09 179.94 593.01 175.90 588.04 C 175.77 573.89 175.66 559.71 175.96 545.56 Z" />
</g>
</svg>
