<svg width="18" height="18" viewBox="0 0 18 18" fill="none" xmlns="http://www.w3.org/2000/svg">
<path d="M9 18C4.03725 18 0 13.9628 0 9C0 4.03725 4.03725 0 9 0C13.9628 0 18 4.03725 18 9C18 13.9628 13.9628 18 9 18ZM9 1.5C4.8645 1.5 1.5 4.8645 1.5 9C1.5 13.1355 4.8645 16.5 9 16.5C13.1355 16.5 16.5 13.1355 16.5 9C16.5 4.8645 13.1355 1.5 9 1.5ZM11.0602 10.4782L10.2585 11.1165C8.70525 10.5232 7.55925 9.4245 6.8835 7.7415L7.52175 6.93975C7.85625 6.60525 7.85625 6.06225 7.52175 5.72775L6.77175 4.75125C6.43725 4.41675 5.89425 4.41675 5.55975 4.75125L5.10975 5.14275C4.69575 5.556 4.5 6.1005 4.5 6.64275C4.5 9.64275 8.57175 13.5 11.3573 13.5C11.8995 13.5 12.444 13.3042 12.8573 12.8903L13.2488 12.4403C13.5833 12.1058 13.5833 11.5627 13.2488 11.2282L12.2723 10.4782C11.9378 10.1438 11.3947 10.1438 11.0602 10.4782Z" fill="#FF3838"/>
</svg>
